<?xml version="1.0" encoding="UTF-8" standalone="no"?>
<!-- Created with Inkscape (http://www.inkscape.org/) -->

<svg
   width="32"
   height="32"
   viewBox="0 0 8.4666665 8.4666666"
   version="1.1"
   id="svg1"
   inkscape:version="1.3.2 (091e20ef0f, 2023-11-25)"
   sodipodi:docname="on-the-rise-foundation-favicon.svg"
   xmlns:inkscape="http://www.inkscape.org/namespaces/inkscape"
   xmlns:sodipodi="http://sodipodi.sourceforge.net/DTD/sodipodi-0.dtd"
   xmlns="http://www.w3.org/2000/svg"
   xmlns:svg="http://www.w3.org/2000/svg">
  <sodipodi:namedview
     id="namedview1"
     pagecolor="#ffffff"
     bordercolor="#000000"
     borderopacity="0.25"
     inkscape:showpageshadow="2"
     inkscape:pageopacity="0.0"
     inkscape:pagecheckerboard="0"
     inkscape:deskcolor="#d1d1d1"
     inkscape:document-units="mm"
     inkscape:zoom="21.92211"
     inkscape:cx="19.181548"
     inkscape:cy="15.623496"
     inkscape:window-width="1920"
     inkscape:window-height="975"
     inkscape:window-x="0"
     inkscape:window-y="0"
     inkscape:window-maximized="1"
     inkscape:current-layer="layer1" />
  <defs
     id="defs1">
    <clipPath
       clipPathUnits="userSpaceOnUse"
       id="clipPath2">
      <path
         d="m 443.707,473.512 h 766.258 v 992.434 H 443.707 Z"
         id="path2" />
    </clipPath>
  </defs>
  <g
     inkscape:label="Layer 1"
     inkscape:groupmode="layer"
     id="layer1">
    <path
       id="path1"
       d="m 774.285,1465.19 c -17.023,-2.46 -41.66,-11.69 -49.023,-18.4 -3.219,-2.83 -5.571,-7.39 -6.285,-11.95 -0.817,-4.87 1.277,-16.51 5.109,-28.55 10.019,-31.33 27.195,-51.74 49.945,-59.17 13.289,-4.35 31.078,-4.35 50.145,0 l 6.75,1.54 1.789,-1.08 c 0.969,-0.56 3.32,-2.76 5.262,-4.87 3.886,-4.2 6.648,-9.17 8.027,-14.61 2.965,-11.38 -1.941,-30.71 -11.5,-45.37 -3.938,-6 -8.129,-10.82 -17.484,-20.04 -17.278,-17.02 -29.188,-26.66 -52.04,-42.24 -15.843,-10.82 -27.703,-19.64 -38.437,-28.56 -2.457,-2.05 -4.602,-3.74 -4.754,-3.74 -0.156,0 -0.258,2.51 -0.258,5.58 0,12.41 -2.043,27.79 -5.316,39.53 -8.024,29.22 -24.738,49.88 -51.168,63.16 -22.492,11.33 -49.481,16.87 -82.25,16.81 -20.344,-0.05 -24.945,-0.92 -30.211,-5.74 -3.68,-3.38 -5.93,-8.04 -7.668,-15.94 -7.156,-32.76 -7.512,-64.9 -1.02,-90.33 6.133,-24.09 17.84,-42.14 35.782,-55.37 19.324,-14.25 47.59,-23.37 79.078,-25.68 l 4.91,-0.36 -1.789,-3.13 c -3.527,-6.25 -11.402,-22.76 -14.367,-30.3 -12.778,-32.29 -18.657,-65 -17.84,-99.454 0.922,-38.039 9.101,-71.719 25.664,-105.606 13.187,-26.914 28.93,-48.754 50.402,-69.722 26.629,-26.043 57.403,-45.114 92.727,-57.469 l 7.668,-2.668 0.152,-108.168 0.102,-108.172 -8.024,4.871 c -11.144,6.715 -30.058,16.043 -42.582,21.016 -27.605,10.972 -52.601,16.972 -84.601,20.25 -8.434,0.875 -42.938,0.875 -51.883,0 -46.211,-4.563 -88.231,-18.094 -126.262,-40.754 l -8.945,-5.383 -0.152,227.465 -0.106,227.418 1.125,0.922 c 27.656,21.894 57.766,37.164 91.453,46.294 7.973,2.15 10.887,3.59 13.953,6.87 10.43,11.18 6.032,28.5 -8.586,33.63 -3.988,1.44 -9,1.03 -18.3,-1.54 -39.821,-11.02 -77.7,-30.81 -109.036,-57.11 -5.726,-4.82 -7.003,-6.25 -9.097,-10.1 l -1.637,-3.08 V 488.109 l 1.176,-2.511 c 3.629,-7.946 11.246,-12.508 19.988,-11.996 4.805,0.308 8.332,1.742 12.524,5.175 13.597,11.075 21.671,16.973 32,23.379 33.48,20.867 69.824,33.274 110.925,37.836 11.297,1.231 37.875,1.231 49.84,0 24.434,-2.617 48.102,-8.41 70.539,-17.328 14.824,-5.844 34.66,-16.355 48.207,-25.531 8.125,-5.485 18.914,-13.844 22.543,-17.43 2.145,-2.156 4.547,-4 6.391,-4.871 2.91,-1.383 3.269,-1.437 9.711,-1.23 5.98,0.152 7.004,0.308 9.609,1.539 3.731,1.742 6.391,3.894 8.332,6.765 1.485,2.203 10.942,9.688 19.68,15.535 13.242,8.868 34.098,19.84 48.359,25.477 57.762,22.711 120.379,24.148 178.659,4.102 29.29,-10.098 57.04,-25.735 80.86,-45.676 6.5,-5.438 10.23,-7.332 15.29,-7.692 8.89,-0.668 16.31,3.59 20.24,11.637 l 1.38,2.82 v 517.781 l -1.48,2.98 c -1.94,3.79 -4.55,6.46 -13.03,13.17 -24.54,19.54 -53.52,36.05 -80.82,46.14 l -3.84,1.44 -0.25,58.85 -0.25,58.91 -1.64,3.33 c -2.1,4.25 -5.63,7.79 -9.87,9.9 l -3.32,1.64 h -14.57 c -15.44,-0.05 -19.17,-0.41 -33.48,-3.13 -47.746,-9.18 -100.703,-37.12 -146.097,-77 -27.602,-24.3 -54.184,-54.4 -74.938,-84.95 -2.301,-3.38 -4.344,-6.15 -4.551,-6.15 -0.203,0 -4.703,2.92 -10.07,6.51 -5.316,3.53 -13.035,8.35 -17.125,10.71 -9.863,5.69 -26.887,13.95 -37.57,18.25 l -8.692,3.49 h -5.621 c -5.008,0 -5.93,-0.16 -8.535,-1.39 -11.809,-5.53 -15.594,-20.5 -7.875,-31.06 2.609,-3.59 6.086,-5.74 14.621,-9.08 19.781,-7.79 42.121,-20.45 59.551,-33.68 l 5.625,-4.305 0.152,-97.508 c 0.051,-53.625 0,-97.508 -0.203,-97.508 -0.871,0 -12.32,5.281 -19.426,8.922 -51.117,26.453 -89.457,72.231 -107.039,127.703 -7.976,25.117 -10.582,57.828 -6.902,86.026 7.055,53.83 32.816,102.38 72.281,136.16 14.824,12.71 25.914,21.17 43.754,33.37 23.055,15.8 37.215,27.38 55.617,45.58 9.102,9.02 16.613,17.12 20.348,22.04 l 1.277,1.75 3.832,-2.57 c 24.383,-16.45 52.602,-27.12 82.504,-31.22 19.527,-2.66 41.305,2.62 59.402,14.46 10.63,6.92 22.23,17.63 31.03,28.66 12.11,15.28 23.61,35.22 31.33,54.6 3.99,9.89 4.45,11.58 4.4,16.14 -0.05,8.11 -2.71,12.26 -12.53,19.64 -28.88,21.63 -59.29,35.17 -87.304,38.86 -8.843,1.13 -24.59,0.77 -32.308,-0.77 -21.879,-4.41 -41.711,-16.71 -59.09,-36.66 -2.965,-3.43 -5.422,-6.3 -5.524,-6.4 -0.05,-0.06 -0.968,1.53 -2.043,3.58 -2.351,4.72 -5.113,8.88 -8.996,13.59 l -3.07,3.64 -0.102,5.33 c -0.304,11.54 -6.082,31.22 -13.39,45.58 -12.27,24.15 -29.906,38.04 -53.113,41.78 -5.723,0.97 -20.141,0.92 -26.735,-0.05 z m 20.653,-40.45 c 6.031,-1.08 7.972,-2.05 12.421,-6.2 6.899,-6.41 12.371,-15.02 15.079,-23.69 0.714,-2.36 1.332,-4.46 1.332,-4.72 0,-0.71 -8.489,-3.53 -13.141,-4.35 -8.637,-1.54 -21.774,-0.51 -26.684,2 -2.351,1.23 -8.843,7.58 -11.859,11.53 -3.32,4.46 -6.184,10.05 -8.125,15.94 -1.277,3.8 -1.484,4.82 -0.922,5.18 1.535,0.98 11.656,4.05 14.723,4.46 5.215,0.77 12.269,0.67 17.176,-0.15 z m 182.285,-70.44 c 15.695,-2.72 34.197,-10.51 51.937,-21.94 l 4.24,-2.72 -4.29,-8.41 c -15.7,-30.45 -34.813,-50.14 -54.34,-55.98 -6.594,-1.95 -17.379,-2.3 -26.02,-0.82 -10.937,1.9 -20.293,5.07 -32.969,11.18 -7.769,3.79 -19.273,10.35 -22.238,12.71 l -1.531,1.23 3.679,7.38 c 12.727,25.59 29.391,44.86 45.903,53.11 3.527,1.75 10.48,4.05 14.261,4.67 4.907,0.82 15.235,0.61 21.368,-0.41 z m -376.84,-82.13 c 29.496,-2.72 50.605,-10.81 63.285,-24.3 6.543,-6.97 10.887,-15.48 13.801,-27.32 2.453,-9.75 2.914,-14.41 2.914,-29.59 0,-12.76 -0.82,-23.94 -2.149,-29.42 l -0.304,-1.23 -6.953,0.36 c -23.106,1.13 -43.145,5.53 -57.047,12.46 -11.348,5.69 -19.989,14.14 -25.254,24.71 -6.442,12.76 -9.559,32.91 -8.281,52.75 0.562,8.41 1.789,19.12 2.402,21.27 0.258,0.77 0.973,0.87 5.98,0.87 3.172,0 8.387,-0.25 11.606,-0.56 z M 1068.62,928.793 V 696.148 l -3.68,-0.359 c -2.04,-0.207 -6.59,-0.82 -10.12,-1.387 -44.16,-7.023 -92.523,-29.785 -136.484,-64.183 -21.469,-16.817 -46.059,-40.86 -64.359,-62.903 -2.911,-3.539 -5.622,-6.769 -5.981,-7.179 -0.613,-0.614 -0.715,31.992 -0.715,216.703 v 217.367 l 7.567,11.483 c 23.515,35.48 51.117,66.6 82.043,92.44 34.199,28.5 73.869,50.08 108.469,58.9 7.87,2 18.05,4 22.39,4.41 0.82,0.05 0.87,-11.33 0.87,-232.647 z m 57.26,89.407 c 13.03,-6.56 27.39,-15.53 39.25,-24.555 l 4.71,-3.59 V 534.914 l -1.13,0.719 c -0.66,0.41 -4.34,2.613 -8.18,4.922 -29.44,17.531 -61.03,29.527 -96,36.449 -27.19,5.383 -61.08,6.664 -90.221,3.332 -19.118,-2.152 -44.012,-7.688 -61.598,-13.738 -2.246,-0.77 -2.043,-0.563 5.113,6.41 42.836,41.73 95.746,71.769 141.336,80.18 9.56,1.742 15.8,2.355 24.75,2.355 4.34,0 9.04,0.258 10.48,0.566 7.31,1.536 13.24,7.075 15.33,14.2 0.72,2.511 0.82,19.531 0.82,179.019 v 176.252 l 3.73,-1.69 c 2,-0.92 7.26,-3.49 11.61,-5.69"
       style="fill:#ff9f00;fill-opacity:1;fill-rule:nonzero;stroke:none"
       transform="matrix(0.0074055,0,0,-0.0074055,-1.8897822,11.414651)"
       clip-path="url(#clipPath2)" />
  </g>
</svg>
